<?xml version="1.0" encoding="iso-8859-1"?>
<!-- Generator: Adobe Illustrator 18.0.0, SVG Export Plug-In . SVG Version: 6.00 Build 0)  -->
<!DOCTYPE svg PUBLIC "-//W3C//DTD SVG 1.1//EN" "http://www.w3.org/Graphics/SVG/1.1/DTD/svg11.dtd">
<svg version="1.1" id="Layer_1" xmlns="http://www.w3.org/2000/svg" xmlns:xlink="http://www.w3.org/1999/xlink" x="0px" y="0px"
	 viewBox="0 0 725.844 410.812" style="enable-background:new 0 0 725.844 410.812;" xml:space="preserve">
<g>
	<g>
		<path style="fill-rule:evenodd;clip-rule:evenodd;fill:#9BBE3C;" d="M677.97,21.55c-1.2,1.8-2.1,3.7-2.1,4.2
			c0,0.4-0.9,2.6-1.9,4.8c-1.1,2.3-2.7,6.6-3.5,9.6c-2.5,9-5.6,17.2-7.6,19.7c-1,1.2-2.1,3.8-2.4,5.6c-0.3,1.8-1.5,5.1-2.6,7.2
			c-1.1,2.2-2,5-2,6.3c0,1.3-1.1,3.7-2.5,5.3c-1.3,1.6-2.7,4.6-3.1,6.7c-0.3,2-1.4,4.8-2.3,6.2c-1,1.4-2.1,4.1-2.5,6.1
			c-0.3,2.1-1.3,4.3-2.1,4.9c-0.9,0.7-2.2,3.8-3.1,6.9s-2,6.1-2.5,6.7s-4.7,1.3-9.3,1.6c-8.3,0.4-8.6,0.6-17.8,6.3
			c-12.2,7.8-18.9,12.9-26.8,20.6c-11,10.8-14,15.9-17.7,30.6c-0.3,1.3,0.5,4.7,1.7,7.9c2.2,5.2,2.8,5.9,8.4,8.5
			c6.1,2.9,8.8,3,13.1,0.4c1.1-0.7,3.6-1.8,5.5-2.4c1.9-0.6,6.6-3.8,10.4-7.2c3.7-3.3,7.3-5.8,8-5.6c0.6,0.2,1.3,2.6,1.6,5.3
			c1.2,12.1,14.1,18.7,25.8,13.4c6.1-2.7,13.2-8.8,33.9-28.9c18.5-18,20.8-21.2,16.3-22.6c-2.5-0.8-8,0.3-10,2c-0.8,0.7-3.1,2-5,2.9
			c-6.5,3.1-11.5,5.8-13,7.1c-3.1,2.7-11.1,6.6-12.1,5.9c-1.9-1.1-0.5-14.3,1.8-18.4c1.2-1.9,2.4-5.9,2.7-8.9c0.4-3,1.5-7,2.5-9
			s2.2-5.6,2.6-8.1c0.4-2.5,1.5-6.1,2.5-8s2.3-5.5,3-7.9c0.6-2.4,2-6,3.1-8c1-2,1.9-4.1,1.9-4.7c0-1.3,2.3-6.6,12-27.9
			c1-2.2,3.2-7.2,5-11c1.8-3.9,4.5-9.7,6-13c5.4-11.3,4.8-15.1-2.8-21.3C685.37,16.85,680.77,16.85,677.97,21.55z M626.67,148.85
			c0.2,1.4-1,3.6-3.3,6.2c-4.4,4.8-15,12.1-17.6,12.1c-3.8,0-1.7-3.6,7.1-12.3c6.8-6.7,9.5-8.8,11.2-8.5
			C625.57,146.55,626.47,147.45,626.67,148.85z"/>
		<path style="fill-rule:evenodd;clip-rule:evenodd;fill:#9BBE3C;" d="M438.77,25.05c-1.3,1-4.6,2.8-7.2,3.9
			c-9.4,4.2-23.4,20.9-25.1,30c-0.3,1.9-1.4,4.6-2.5,6c-1.6,2.3-1.9,5-2.3,17.2c-0.3,12.2-0.7,15.1-2.5,18.5
			c-1.1,2.2-2.3,6.7-2.7,10c-1,8.4-3.4,15.3-5.9,16.9c-1.2,0.8-4.7,1.7-7.7,2c-3,0.4-8.9,1.6-13.2,2.7c-4.2,1-9.3,1.9-11.2,1.9
			c-5.6,0-10.2,2.4-13.5,7.1c-4,5.4-4.2,10.2-0.6,12.5c3.4,2.2,16.7,1.4,19.5-1.1c2.5-2.2,15.8-3.1,18.2-1.2
			c1.5,1.2,1.5,1.7-0.4,7.2c-1.1,3.3-2.3,6.4-2.8,7c-0.4,0.5-1.5,3.2-2.3,6c-0.9,2.7-2.5,6.8-3.6,9c-1.2,2.1-2.1,4.8-2.1,6
			c0,1.1-1.2,4.2-2.5,7c-1.4,2.7-2.5,6.3-2.5,7.9c0,1.6-1.1,4.8-2.4,7c-1.3,2.3-2.7,6.1-3.1,8.6s-1.6,6.1-2.6,8
			c-1.1,1.9-1.9,4.8-1.9,6.5c-0.1,1.6-0.8,4.8-1.7,7c-0.8,2.2-2.3,6.9-3.3,10.5s-2.6,8.3-3.6,10.5c-2.5,5.8-2.6,25-0.1,28.8
			c3.4,5.3,9.6,2.3,14.4-7c12.8-24.9,14.3-28.1,14.3-31c0-1.4,1.1-5.1,2.4-8.2c2.7-6.4,5.9-15.9,8.2-24.6c0.9-3.3,2-6.5,2.5-7.1
			c0.5-0.6,1.4-3.5,2-6.5s1.9-7,2.9-8.9c0.9-1.9,2.1-5.3,2.4-7.5c0.4-2.2,1.6-5.4,2.7-7.1c1-1.7,1.9-4,1.9-5.1
			c0-1.1,1.1-4.2,2.5-6.9c1.4-2.7,2.8-6.5,3.1-8.4c0.8-3.9,6.1-13.9,7.8-14.6c0.6-0.2,5.9-0.8,11.8-1.2c7.5-0.6,11.3-1.4,12.5-2.5
			c1.1-0.9,4.8-1.8,9.3-2.3c5.2-0.4,8.9-1.5,12-3.2c9-5.1,12-9.3,12-16.7c0-3.8-0.5-5.2-2.9-7.6c-3.4-3.4-6.3-3.6-11.2-1
			c-2,1.1-5.6,2.5-8,3.1s-5.8,1.8-7.5,2.5c-4.3,2-16.4,4.7-18,4.1c-1.8-0.7-1.8-3.6,0-6.1c0.7-1.1,1.9-3.8,2.6-6s1.9-5.1,2.6-6.5
			c0.7-1.4,2.8-6.3,4.5-11c5.7-15.6,8.9-21,17-29.1c7.8-7.8,10-8.9,17.6-8.9c4.7,0,9.5-2.2,12.2-5.6c1.9-2.4,2.2-3.8,1.9-8.2
			c-0.5-5.9-2.4-8.4-9.8-13.2c-4.6-3-4.9-3-18.2-3C442.97,23.15,440.77,23.45,438.77,25.05z"/>
		<path style="fill-rule:evenodd;clip-rule:evenodd;fill:#9BBE3C;" d="M154.87,42.15c-6.4,1.7-15.5,6.1-23.5,11.2
			c-4.8,3-17.3,16-18.9,19.7c-0.6,1.4-2.3,4.6-3.7,7.1c-6.3,10.9-9.4,22.9-10.9,42.5c-0.7,9.2-2.1,18.6-3.6,24.4
			c-1.3,5.1-2.4,10.3-2.4,11.4c0,1.2-1.4,6.3-3.2,11.4c-3.5,10.3-2.8,9.8-13.8,10.7c-3.6,0.3-9.4,1.5-12.8,2.6
			c-4.2,1.3-9.1,2-14.4,2c-7.3,0-8.5,0.3-14.3,3.5c-7.7,4.3-11.6,9.1-12.3,15.2c-1,9.4,5.8,13.9,14.6,9.4c2-1,7.1-2.1,11.2-2.5
			c4.1-0.3,10.8-1.6,14.8-2.7c4-1.1,8.7-1.9,10.5-1.7c2.7,0.2,3.3,0.8,3.5,3.1c0.2,1.5-0.6,4.2-1.7,6.1c-1.2,1.8-2.1,4.2-2.1,5.3
			c0,1.1-1.1,4-2.3,6.4c-1.3,2.4-2.7,5.7-3.1,7.4c-0.4,1.6-1.4,4.3-2.1,6c-2.3,4.8-6.6,16.7-7.6,20.8c-0.5,2.2-1.8,5.5-2.8,7.5
			c-1,2.1-2.2,5.5-2.5,7.7c-0.4,2.2-1.6,5.3-2.6,7c-1,1.6-2.1,5-2.5,7.5c-0.4,2.5-1.5,6.2-2.6,8.3c-1.1,2.2-2.2,6-2.6,8.5
			c-0.3,2.6-1.7,6.9-3,9.7c-1.2,2.7-2.3,6.6-2.3,8.5c0,1.9-0.9,5.3-2.1,7.4c-1.1,2.1-2.5,6.6-3,9.8c-0.5,3.3-1.6,7-2.5,8.2
			c-0.8,1.3-2.1,6-2.9,10.5c-1.2,6.9-1.2,9.8-0.1,18.1c1.7,13.1,4.1,16,11,12.8c1.4-0.6,2.9-2,3.2-3.2c0.4-1.2,3.8-7.3,7.7-13.6
			c8.5-13.9,9.7-16.1,9.7-17.9c0-0.7,0.9-2.8,1.9-4.5c1-1.7,2.2-4.5,2.5-6.2c0.4-1.6,1.8-5.2,3.1-7.9c1.4-2.6,2.5-6,2.5-7.3
			c0-1.4,0.7-3.3,1.6-4.3s1.9-4.4,2.3-7.7c0.4-3.6,1.5-6.9,2.8-8.6c1.2-1.4,2.4-5,2.8-7.9c0.4-2.8,1.6-6.5,2.7-8
			c1.1-1.5,2.4-5.6,2.8-9c0.5-3.4,1.8-8,2.9-10.2c1.2-2.1,2.1-5.3,2.1-7c0-1.7,1.1-4.6,2.5-6.5c1.7-2.3,2.5-4.7,2.5-7.3
			c0-2.3,0.9-5.4,2.1-7.4c1.2-2,2.6-5.6,3.1-8.1c0.4-2.5,1.5-5.3,2.2-6.1c0.8-0.9,2-3.9,2.7-6.6c0.7-2.8,1.8-5.7,2.5-6.5
			c0.6-0.8,2.2-4.8,3.5-8.9c3.5-11,3.6-11,15.9-12.1c5.8-0.5,12.3-1.5,14.5-2.3s7.5-1.8,11.7-2.2c5.2-0.4,8.5-1.3,10.1-2.5
			c1.3-1.1,4.7-2.2,7.6-2.6c8.4-1.1,27.3-11.6,30-16.7c2-3.8,0.6-7.5-5.3-13.4c-5.3-5.3-5.3-5.3-11.5-5.3c-4.3,0-7.4,0.6-10.4,2.1
			c-2.3,1.2-6.4,2.8-9.2,3.5c-7,1.8-14.3,4.2-19.1,6.4c-6,2.7-11.1,3.5-12.9,2c-2.2-1.9-1.9-9.2,0.5-12c1.1-1.2,2.3-3.9,2.6-5.9
			c0.4-2,1.7-5.4,3-7.7c1.3-2.2,2.4-5.2,2.4-6.6c0-1.4,0.8-3.6,1.9-4.9c1-1.4,2.3-4,2.9-5.9c1.2-4,6-15.5,9.2-22
			c2.2-4.3,16.2-19,18.2-19c0.5,0,3.3-1.1,6.1-2.5c3.1-1.4,8-2.7,12.2-3c10.6-1,12-1.8,15.6-9.1c3.8-7.6,3.5-9.7-2.4-16.1
			c-9-9.8-19.4-14.4-32-14.2C165.07,40.35,158.47,41.25,154.87,42.15z"/>
		<path style="fill-rule:evenodd;clip-rule:evenodd;fill:#9BBE3C;" d="M304.87,63.75c-3.6,1.5-8.5,8-16.3,21.4
			c-4.7,8.2-22.4,44.3-25.6,52.5c-1.8,4.4-4.1,10.2-5.3,13c-1.1,2.7-2.5,6.8-3.1,9c-0.6,2.2-2.5,6.3-4.3,9.1
			c-3.7,5.8-5.2,6.4-16.8,6.4c-5,0-8.4,0.7-11.6,2.1c-7.4,3.4-8,4.3-8,12.6c0,7,0.1,7.5,3.7,11.4c3.6,3.9,3.8,4,8.7,3.5
			c2.8-0.3,6.4-0.6,8-0.8c4.3-0.4,5,2.6,2,8.8c-1.3,2.7-2.4,6-2.4,7.4c0,2.7-5.4,8.7-9.8,11c-1.3,0.6-5.5,3.5-9.3,6.3
			c-3.7,2.9-14.9,10.5-24.8,17c-15.7,10.4-18.2,11.7-20,10.7c-3-1.5-3-11.6-0.1-15c1.1-1.3,2.5-4.2,3-6.4c0.6-2.3,1.5-4.8,2-5.6
			c0.6-0.8,2-3.4,3.1-5.7c1.1-2.4,3.5-5.4,5.4-6.9c4-3,6-8,4.6-11.6c-0.5-1.4-2.4-3.7-4.2-5.3c-3.1-2.5-3.8-2.7-10-2.3
			c-11.1,0.8-18.1,6.4-20.9,16.7c-0.6,2.3-2,5.7-3.1,7.4c-1,1.8-1.9,4.2-1.9,5.5s-1.1,5.6-2.4,9.5c-5.2,15.6-5.4,35-0.4,42
			c3.7,5.2,9.6,8.7,14.7,8.7c4,0,6-0.8,13.6-5.9c5-3.2,12.2-8.7,16.1-12.2c3.9-3.5,10.5-9.3,14.7-12.8s9.4-8.3,11.6-10.7
			c4.8-5.2,7.1-5.1,7.1,0.5c0,2-0.4,4.1-0.9,4.7c-0.5,0.5-1.9,4-3,7.9c-1,3.8-2.6,8.8-3.5,11c-0.8,2.2-1.5,5.1-1.6,6.5
			c0,1.4-1.1,4.7-2.3,7.5c-1.3,2.7-2.6,7.3-3,10.2c-0.3,2.8-1.5,7-2.6,9.2c-3,5.7-3,22.4-0.1,26.1c1.1,1.4,2,3,2,3.6
			c0,0.5,0.9,2,2,3.2c3.8,4,14,2.2,14-2.5c0-0.6,0.9-3,1.9-5.4c1.1-2.4,2.4-8,3-12.4c0.5-4.4,1.7-9.4,2.6-11.2
			c0.9-1.7,1.8-5.6,2.2-8.5c0.3-2.9,1.6-7.3,2.9-9.8c1.3-2.5,2.4-6.1,2.4-8c0-2,0.9-5.4,2.1-7.5c1.1-2.2,2.5-6.5,3-9.5
			c0.6-3,1.9-6.5,2.9-7.7c1-1.3,2.2-4.3,2.5-6.6c0.4-2.3,1.5-5.8,2.5-7.7c1-2,2.2-5.3,2.6-7.5c0.4-2.1,1.5-5.3,2.5-6.9
			c0.9-1.7,2.3-5.1,2.9-7.6c0.7-2.5,1.6-5,2.1-5.6c0.5-0.6,1.8-3.5,2.8-6.5c4.4-12.6,6.5-16.9,9.5-19.8c2.7-2.6,4.2-3.2,9.6-3.7
			c3.9-0.4,7.6-1.4,9.2-2.5c1.4-1,5.4-2.3,8.7-2.8c6.2-1,9.9-3.2,18.4-11.1c5.1-4.7,8.3-10.6,6.6-12.6c-1.5-1.8-6.2-1.8-12.9,0.2
			c-4.6,1.3-11.8,2.6-25.4,4.6c-1,0.2-2.3-0.5-2.9-1.4c-0.9-1.3-0.5-2.5,1.6-5.5c1.5-2.2,2.7-4.4,2.7-4.9c0-0.6,1.1-2.5,2.5-4.4
			s2.5-4.1,2.5-5c0-1.8,15.1-31.8,18.6-37c1.3-1.9,2.4-3.8,2.4-4.2c0-0.4,2.1-4.1,4.8-8.1c2.6-4.1,5.5-8.7,6.5-10.3
			c0.9-1.6,2.6-4.4,3.8-6.2c2-3,2-3.4,0.5-5.7c-0.9-1.3-4.2-4.1-7.3-6.1c-4.7-3-6.9-3.7-11.8-4
			C309.07,63.35,305.67,63.45,304.87,63.75z"/>
		<path style="fill-rule:evenodd;clip-rule:evenodd;fill:#9BBE3C;" d="M529.27,140.75c-1,1.4-4.4,4.4-7.7,6.6
			c-7.2,4.9-13.8,11.8-20.2,21.3c-6.4,9.3-7.4,11.9-8.1,21.8c-1,12.2,0,16.7,4.8,22.8c5.3,6.8,9.2,8.3,18.8,7.5
			c6.3-0.5,8.3-1.2,12.8-4.2c11.5-7.6,19.1-16.6,25.5-30.2c2.9-6.1,3.2-7.6,3.2-16.7c0-9.8-0.1-10.1-3.7-15.5
			c-5.6-8.7-15.5-15.8-22-16C531.67,138.15,530.17,139.35,529.27,140.75z M537.67,167.35c1.9,1.9,1.4,6.9-1.3,12.3
			c-1.4,2.7-2.5,5.6-2.5,6.2c0,1.9-7.1,9.4-9.8,10.4c-2.8,1.1-5.8-0.3-6.7-3c-1.1-3.6,1.6-10.4,5.9-15.2c2.2-2.5,5.4-6.2,6.9-8.2
			C533.07,166.05,535.57,165.25,537.67,167.35z"/>
		<path style="fill-rule:evenodd;clip-rule:evenodd;fill:#9BBE3C;" d="M449.27,160.45c-11.6,11.7-18,20.1-24,31.7
			c-3.4,6.7-3.6,7.4-3.2,15.3c0.3,7.3,0.7,8.7,3.5,12.8c2.5,3.6,4.5,5.1,9.8,7.4l6.7,2.8l6.6-2.2c3.7-1.2,7.1-2.1,7.6-2.1
			c0.4,0,2.8-1.2,5.3-2.8c11.2-6.9,18.2-14.6,23.4-25.6c2.4-5.1,2.9-7.4,2.9-13.8c0-8.8-0.5-10.1-6.3-18.2
			c-4.3-6.2-16.9-16.7-19.6-16.5C461.07,149.25,455.37,154.35,449.27,160.45z M464.47,183.65c1.1,2.8-0.7,6.9-5.1,11.3
			c-7.9,7.8-10.7,3.7-3.9-5.8C460.27,182.55,463.37,180.65,464.47,183.65z"/>
	</g>
</g>
</svg>
